<svg width="129" height="129" viewBox="0 0 129 129" fill="none" xmlns="http://www.w3.org/2000/svg">
<rect x="3" y="3" width="123" height="123" rx="61.5" stroke="#5D392F" stroke-width="5"/>
<rect x="3" y="3" width="123" height="123" rx="61.5" stroke="url(#paint0_linear_11048_5134)" stroke-width="5"/>
<rect x="99" y="99" width="26" height="26" rx="4" fill="white"/>
<path d="M125 100.95V123.05C125 123.567 124.795 124.063 124.429 124.429C124.063 124.795 123.567 125 123.05 125H100.95C100.433 125 99.9368 124.795 99.5711 124.429C99.2054 124.063 99 123.567 99 123.05V100.95C99 100.433 99.2054 99.9368 99.5711 99.5711C99.9368 99.2054 100.433 99 100.95 99H123.05C123.567 99 124.063 99.2054 124.429 99.5711C124.795 99.9368 125 100.433 125 100.95ZM106.8 108.75H102.9V121.1H106.8V108.75ZM107.19 104.85C107.196 104.386 107.065 103.93 106.812 103.541C106.558 103.152 106.195 102.847 105.768 102.665C105.341 102.483 104.87 102.432 104.414 102.519C103.958 102.605 103.538 102.825 103.207 103.151C102.877 103.477 102.651 103.894 102.558 104.349C102.465 104.804 102.509 105.276 102.685 105.705C102.861 106.135 103.161 106.502 103.547 106.761C103.932 107.019 104.386 107.157 104.85 107.157C105.156 107.164 105.461 107.11 105.746 106.997C106.031 106.884 106.29 106.714 106.509 106.499C106.727 106.284 106.9 106.027 107.017 105.744C107.134 105.46 107.193 105.157 107.19 104.85ZM121.1 113.527C121.1 109.738 118.624 108.425 116.44 108.425C115.675 108.405 114.917 108.572 114.231 108.912C113.546 109.252 112.954 109.754 112.507 110.375H112.455V108.75H108.75V121.1H112.65V114.476C112.632 114.134 112.681 113.792 112.795 113.469C112.91 113.146 113.087 112.849 113.316 112.595C113.546 112.341 113.823 112.134 114.133 111.987C114.442 111.841 114.778 111.757 115.12 111.74C116.219 111.74 117.2 112.39 117.2 114.424V121.1H121.1V113.527Z" fill="#5D392F"/>
<path d="M125 100.95V123.05C125 123.567 124.795 124.063 124.429 124.429C124.063 124.795 123.567 125 123.05 125H100.95C100.433 125 99.9368 124.795 99.5711 124.429C99.2054 124.063 99 123.567 99 123.05V100.95C99 100.433 99.2054 99.9368 99.5711 99.5711C99.9368 99.2054 100.433 99 100.95 99H123.05C123.567 99 124.063 99.2054 124.429 99.5711C124.795 99.9368 125 100.433 125 100.95ZM106.8 108.75H102.9V121.1H106.8V108.75ZM107.19 104.85C107.196 104.386 107.065 103.93 106.812 103.541C106.558 103.152 106.195 102.847 105.768 102.665C105.341 102.483 104.87 102.432 104.414 102.519C103.958 102.605 103.538 102.825 103.207 103.151C102.877 103.477 102.651 103.894 102.558 104.349C102.465 104.804 102.509 105.276 102.685 105.705C102.861 106.135 103.161 106.502 103.547 106.761C103.932 107.019 104.386 107.157 104.85 107.157C105.156 107.164 105.461 107.11 105.746 106.997C106.031 106.884 106.29 106.714 106.509 106.499C106.727 106.284 106.9 106.027 107.017 105.744C107.134 105.46 107.193 105.157 107.19 104.85ZM121.1 113.527C121.1 109.738 118.624 108.425 116.44 108.425C115.675 108.405 114.917 108.572 114.231 108.912C113.546 109.252 112.954 109.754 112.507 110.375H112.455V108.75H108.75V121.1H112.65V114.476C112.632 114.134 112.681 113.792 112.795 113.469C112.91 113.146 113.087 112.849 113.316 112.595C113.546 112.341 113.823 112.134 114.133 111.987C114.442 111.841 114.778 111.757 115.12 111.74C116.219 111.74 117.2 112.39 117.2 114.424V121.1H121.1V113.527Z" fill="url(#paint1_linear_11048_5134)"/>
<defs>
<linearGradient id="paint0_linear_11048_5134" x1="108.5" y1="11" x2="-6.5" y2="65" gradientUnits="userSpaceOnUse">
<stop stop-color="#CE7B00"/>
<stop offset="0.0775703" stop-color="#FFD494"/>
<stop offset="0.250138" stop-color="#FFB03E"/>
<stop offset="0.290895" stop-color="#FFF9F0"/>
<stop offset="0.335973" stop-color="#FDB651"/>
<stop offset="0.925446" stop-color="#F7C37E"/>
</linearGradient>
<linearGradient id="paint1_linear_11048_5134" x1="99" y1="112" x2="114.179" y2="99.1839" gradientUnits="userSpaceOnUse">
<stop offset="0.011238" stop-color="#F8C77E"/>
<stop offset="1" stop-color="#E7A33E"/>
</linearGradient>
</defs>
</svg>
